<svg xmlns="http://www.w3.org/2000/svg" width="24px" height="24px" viewBox="0 0 1024 1024">
<style type="text/css">
	.st0{fill:#000000;}
</style>
<title>cross</title>
<path class="st0" d="M33.52 34.133c18.49-18.851 48.469-18.851 66.959 0l870.468 887.467c18.493 18.851 18.493 49.417 0 68.268-18.488 18.851-48.468 18.851-66.956 0l-870.471-887.468c-18.49-18.851-18.49-49.415 0-68.267z"></path>
<path class="st0" d="M53.116 989.868c-18.49-18.851-18.49-49.417 0-68.268l870.472-887.467c18.488-18.851 48.468-18.851 66.956-0 18.493 18.851 18.493 49.415 0 68.267l-870.468 887.468c-18.49 18.851-48.469 18.851-66.959 0z"></path>
</svg>